<svg width="22" height="21" viewBox="0 0 22 21" fill="none" xmlns="http://www.w3.org/2000/svg">
<path d="M16.981 17.7233C15.2512 18.7911 13.1998 19.4096 11 19.4096C5.51745 19.4096 0.956277 15.5688 0 10.5C0.444001 8.14654 1.66514 6.05783 3.3948 4.49537L0.215574 1.4L1.6535 0L21.7844 19.5999L20.3465 21L16.981 17.7233ZM4.83366 5.89628C3.48251 7.09456 2.49734 8.68545 2.07536 10.5C3.00818 14.5112 6.69332 17.4297 11 17.4297C12.6262 17.4297 14.1639 17.0135 15.4982 16.2795L13.4359 14.2716C12.7306 14.7043 11.8953 14.9548 11 14.9548C8.47305 14.9548 6.42455 12.9602 6.42455 10.5C6.42455 9.62828 6.6817 8.81504 7.12617 8.12833L4.83366 5.89628ZM11.9289 12.8044L8.63317 9.59561C8.52014 9.87576 8.45808 10.1808 8.45808 10.5C8.45808 11.8668 9.59618 12.9749 11 12.9749C11.3278 12.9749 11.6412 12.9144 11.9289 12.8044ZM19.9542 15.0462L18.4994 13.6297C19.1663 12.7042 19.6579 11.6468 19.9246 10.5C18.9918 6.48874 15.3066 3.57035 11 3.57035C10.14 3.57035 9.30468 3.68674 8.51118 3.90498L6.9067 2.34281C8.17441 1.85718 9.55521 1.59046 11 1.59046C16.4825 1.59046 21.0437 5.43122 22 10.5C21.6826 12.1825 20.9679 13.7298 19.9542 15.0462ZM10.718 6.05355C10.8112 6.04802 10.9053 6.04522 11 6.04522C13.5269 6.04522 15.5755 8.03969 15.5755 10.5C15.5755 10.5922 15.5725 10.6838 15.5669 10.7745L10.718 6.05355Z" fill="#C8C1D7"/>
</svg>
