<svg width="327" height="448" viewBox="0 0 327 448" fill="none" xmlns="http://www.w3.org/2000/svg">
<ellipse cx="163.5" cy="224" rx="163.5" ry="224" fill="url(#paint0_radial_15_145)"/>
<path d="M160 395C247.261 395 318 389.627 318 383C318 376.373 247.261 371 160 371C72.739 371 2 376.373 2 383C2 389.627 72.739 395 160 395Z" fill="#5415D9"/>
<path d="M108.11 226.326C106.752 231.761 108.568 236.861 112.165 237.717C115.762 238.572 119.778 234.861 121.135 229.424C121.708 227.259 121.734 224.99 121.21 222.807L126.659 199.707L115.332 197.399L111.163 220.417C109.668 222.12 108.621 224.146 108.11 226.326Z" fill="#FDADB0"/>
<path d="M155.598 358.412L154.9 373.552L155.599 377.741L153.153 382.629L133.934 384.723L132.886 375.646L143.019 370.41L143.314 361.855L155.598 358.412Z" fill="#FDADB0"/>
<path d="M135.332 381.232L136.38 382.629L156.507 376.834C156.507 376.834 155.599 385.771 155.599 387.516C155.599 389.262 122.403 389.262 117.407 388.564C112.412 387.865 114.016 383.327 114.016 383.327L134.732 373.53L135.332 381.232Z" fill="#2F2E43"/>
<path d="M205.669 347.267L209.857 361.834L211.861 365.58L211.11 370.992L193.573 379.122L189.672 370.857L197.595 362.656L192.625 349.779L205.669 347.267Z" fill="#FDADB0"/>
<path d="M193.779 375.367L195.219 376.355L212.431 364.43C212.431 364.43 214.433 373.187 214.993 374.841C215.552 376.495 184.102 387.109 179.145 388.044C174.189 388.98 174.255 384.167 174.255 384.167L190.743 368.262L193.779 375.367Z" fill="#2F2E43"/>
<path d="M154.243 108.459L153.509 120.366L175.763 121.494L168.871 105.806L154.243 108.459Z" fill="#FDADB0"/>
<path d="M152.941 118.585C158.906 121.243 168.447 120.516 179.259 118.585L180.949 193.425C180.949 193.425 147.127 200.219 135.498 187.683L141.619 126.535L152.941 118.585Z" fill="#E0E1E2"/>
<path d="M139.17 189.518L186.918 194.233L210.481 354.084H192.426L161.51 244.551L159.061 368.683H142.536L128.46 216.729L139.17 189.518Z" fill="#2F2E43"/>
<path d="M172.471 113.999L188.513 123.484C194.591 127.077 197.455 134.331 195.471 141.102L183.072 183.412C183.072 183.412 203.263 218.067 196.702 221.125C181.959 227.995 159.959 226.322 159.959 226.322L164.876 143.35L172.471 113.999Z" fill="#3F3D58"/>
<path d="M153.638 118.271L135.498 125.312L131.214 177.594L119.216 219.712C139.538 227.123 137.64 223.669 137.64 223.669L141.007 150.994L153.638 118.271Z" fill="#3F3D58"/>
<path d="M127.139 218.821L127.201 218.535L145.743 132.85C146.262 130.456 145.599 128.056 143.926 126.266C142.253 124.475 139.901 123.65 137.475 124.002C134.482 124.437 132.086 126.615 131.371 129.552L111.004 213.195L127.139 218.821Z" fill="#3F3D58"/>
<path d="M163.899 111.623C153.928 111.623 145.844 103.546 145.844 93.584C145.844 83.6215 153.928 75.5454 163.899 75.5454C173.87 75.5454 181.954 83.6215 181.954 93.584C181.954 103.546 173.87 111.623 163.899 111.623Z" fill="#FDADB0"/>
<path d="M155.309 70.2137C151.333 71.6102 149.057 72.4092 146.973 74.4156C143.452 77.8046 142.87 82.3336 142.331 86.5417C141.908 89.8337 141.362 94.0901 143.292 98.9531C143.95 100.613 147.144 108.007 153.258 108.941C154.458 109.125 157.277 109.173 156.465 108.573C148.945 103.027 145.736 99.6785 145.999 91.1303C146.163 85.8189 154.286 80.0842 159.11 79.0533C161.141 78.6191 163.847 79.0158 165.786 80.6069C169.84 83.932 169.667 97.6821 173.942 100.556C175.7 101.739 174.529 93.4176 175.768 94.767C178.212 97.4295 176.644 101.507 176.205 103.06C174.121 110.425 170.193 111.146 168.159 117.436C165.962 124.227 168.727 130.62 169.382 132.136C170.523 134.773 172.481 139.3 176.953 141.471C182.63 144.227 187.104 140.638 189.743 143.715C191.219 145.435 190.421 147.257 193.085 152.607C193.955 154.354 194.39 155.227 194.775 155.196C196.597 155.05 199.547 140.478 194.776 126.907C192.774 121.211 190.812 115.632 185.553 111.268C182.773 108.962 180.442 108.131 179.778 105.438C178.83 101.589 182.767 99.9465 183.556 93.8742C184.096 89.7214 184.474 83.782 183.007 79.9752C181.621 76.3803 180.418 73.2596 177.269 70.4301C176.513 69.7505 170.408 65.131 163.934 65.0007C160.954 64.9408 158.765 69.0004 155.309 70.2137Z" fill="#2F2E43"/>
<path d="M117.159 227.789C92.7707 227.789 73 208.036 73 183.669C73 159.303 92.7707 139.55 117.159 139.55C141.548 139.55 161.318 159.303 161.318 183.669C161.318 208.036 141.548 227.789 117.159 227.789Z" fill="#5415D9"/>
<path d="M128.333 212.454C125.652 202.793 122.972 193.131 120.291 183.47C119.72 181.413 119.279 179.129 117.972 177.383C116.962 176.034 115.374 175.151 113.693 175.706C109.685 177.029 109.749 182.808 109.821 186.179C109.928 191.268 111.078 196.346 113.195 200.978C113.485 201.613 113.376 202.371 112.73 202.749C112.173 203.074 111.25 202.923 110.958 202.284C108.839 197.646 107.579 192.681 107.286 187.586C107.033 183.191 107.014 177.394 110.827 174.398C112.691 172.933 115.07 172.498 117.255 173.51C119.415 174.51 120.733 176.581 121.563 178.725C122.485 181.11 123.034 183.666 123.717 186.126L125.916 194.054C127.554 199.958 129.193 205.862 130.831 211.766C131.277 213.373 128.778 214.059 128.333 212.454Z" fill="white"/>
<path d="M116.848 198.999C115.189 192.778 114.341 186.345 114.334 179.908C114.333 178.242 116.923 178.24 116.925 179.908C116.931 186.127 117.743 192.301 119.345 198.311C119.775 199.922 117.277 200.609 116.848 198.999Z" fill="white"/>
<path d="M143.476 198.924C141.74 190.561 139.861 182.172 137.452 173.974C135.498 167.327 132.129 159.794 125.02 157.384C121.489 156.187 117.662 156.38 114.048 157.074C110.464 157.763 106.834 158.788 103.531 160.356C100.405 161.84 97.5121 163.886 95.4538 166.704C93.422 169.485 92.1567 172.714 91.4748 176.075C89.8922 183.877 91.7551 191.847 93.8421 199.366C94.1198 200.367 94.4038 201.366 94.688 202.364C95.1446 203.969 92.6461 204.654 92.1904 203.052C89.8838 194.946 87.488 186.477 88.5626 177.969C89.0274 174.29 90.0605 170.675 91.9014 167.437C93.7879 164.118 96.5099 161.405 99.7731 159.434C103.064 157.445 106.769 156.179 110.479 155.229C114.419 154.22 118.519 153.599 122.578 154.163C126.405 154.695 129.853 156.508 132.562 159.245C135.339 162.049 137.216 165.552 138.601 169.214C140.129 173.253 141.127 177.495 142.178 181.676C143.289 186.095 144.325 190.532 145.286 194.986C145.52 196.068 145.749 197.152 145.974 198.236C146.116 198.919 145.774 199.634 145.069 199.827C144.427 200.004 143.619 199.611 143.476 198.924Z" fill="white"/>
<path d="M130.126 172.172C128.107 166.049 121.602 162.258 115.305 162.678C108.324 163.143 102.274 168.237 99.8232 174.646C98.367 178.455 97.9395 182.646 98.5517 186.676C98.6565 187.366 98.3776 188.067 97.6472 188.268C97.0348 188.436 96.1596 188.059 96.054 187.364C94.8304 179.309 97.0791 170.533 103.424 165.086C106.399 162.532 110.043 160.764 113.944 160.235C117.695 159.726 121.477 160.419 124.798 162.244C128.441 164.245 131.318 167.526 132.624 171.484C133.147 173.07 130.647 173.749 130.126 172.172Z" fill="white"/>
<path d="M135.637 184.041C136.194 190.679 137.868 197.244 140.578 203.332C140.862 203.97 140.763 204.723 140.113 205.103C139.561 205.425 138.627 205.28 138.341 204.638C135.433 198.103 133.645 191.169 133.047 184.041C132.989 183.344 133.684 182.747 134.342 182.747C135.092 182.747 135.579 183.342 135.637 184.041Z" fill="white"/>
<path d="M104.35 191.451C104.906 198.09 106.581 204.654 109.291 210.743C109.574 211.381 109.476 212.133 108.826 212.513C108.274 212.835 107.34 212.691 107.054 212.049C104.146 205.514 102.357 198.58 101.76 191.451C101.702 190.754 102.397 190.157 103.055 190.157C103.804 190.157 104.292 190.752 104.35 191.451Z" fill="white"/>
<path d="M129.12 186.301C127.455 179.702 124.695 173.449 120.951 167.764C120.032 166.369 122.274 165.071 123.188 166.458C127.044 172.314 129.903 178.817 131.618 185.613C132.026 187.228 129.528 187.917 129.12 186.301Z" fill="white"/>
<path d="M154.433 174.672C148.857 174.085 144.056 176.592 143.709 180.27C143.361 183.948 147.599 187.404 153.177 187.99C155.402 188.255 157.655 187.965 159.746 187.142L183.4 189.316L184.11 177.789L160.716 176.869C158.819 175.628 156.665 174.874 154.433 174.672Z" fill="#FDADB0"/>
<path d="M183.252 124.031C188.977 123.225 194.349 126.987 195.539 132.64C199.691 152.364 207.142 194.377 195.44 195.079C180.139 195.996 165.45 192.327 165.45 192.327L169.122 171.231L181.057 170.008L174.037 137.2C172.704 130.971 176.938 124.92 183.252 124.031Z" fill="#3F3D58"/>
<defs>
<radialGradient id="paint0_radial_15_145" cx="0" cy="0" r="1" gradientUnits="userSpaceOnUse" gradientTransform="translate(164.322 224) rotate(90) scale(224 163.5)">
<stop stop-color="#7950E2"/>
<stop offset="1" stop-color="#7950E2" stop-opacity="0"/>
</radialGradient>
</defs>
</svg>
