<svg width="316" height="330" viewBox="0 0 316 330" fill="none" xmlns="http://www.w3.org/2000/svg">
<path d="M158 330C245.261 330 316 324.627 316 318C316 311.373 245.261 306 158 306C70.739 306 0 311.373 0 318C0 324.627 70.739 330 158 330Z" fill="#C9C9C9"/>
<path d="M106.11 161.326C104.752 166.761 106.568 171.861 110.165 172.717C113.762 173.572 117.778 169.861 119.135 164.424C119.708 162.259 119.734 159.99 119.21 157.807L124.659 134.707L113.332 132.399L109.163 155.417C107.668 157.12 106.621 159.146 106.11 161.326Z" fill="#FDADB0"/>
<path d="M153.598 293.412L152.9 308.552L153.599 312.741L151.153 317.629L131.934 319.723L130.886 310.646L141.019 305.41L141.314 296.855L153.598 293.412Z" fill="#FDADB0"/>
<path d="M133.332 316.232L134.38 317.629L154.507 311.834C154.507 311.834 153.599 320.771 153.599 322.516C153.599 324.262 120.403 324.262 115.407 323.564C110.412 322.865 112.016 318.327 112.016 318.327L132.732 308.53L133.332 316.232Z" fill="#2F2E43"/>
<path d="M203.669 282.267L207.857 296.834L209.861 300.58L209.11 305.992L191.573 314.122L187.672 305.857L195.595 297.656L190.625 284.779L203.669 282.267Z" fill="#FDADB0"/>
<path d="M191.779 310.367L193.219 311.355L210.431 299.43C210.431 299.43 212.433 308.187 212.993 309.841C213.552 311.495 182.102 322.109 177.145 323.044C172.189 323.98 172.255 319.167 172.255 319.167L188.743 303.262L191.779 310.367Z" fill="#2F2E43"/>
<path d="M152.243 43.4592L151.509 55.3663L173.763 56.4941L166.871 40.8065L152.243 43.4592Z" fill="#FDADB0"/>
<path d="M150.941 53.5853C156.906 56.2434 166.447 55.5162 177.259 53.5853L178.949 128.425C178.949 128.425 145.127 135.219 133.498 122.683L139.619 61.5346L150.941 53.5853Z" fill="#E0E1E2"/>
<path d="M137.17 124.518L184.918 129.233L208.481 289.084H190.426L159.51 179.551L157.061 303.683H140.536L126.46 151.729L137.17 124.518Z" fill="#2F2E43"/>
<path d="M170.471 48.9991L186.513 58.4842C192.591 62.0774 195.455 69.3308 193.471 76.102L181.072 118.412C181.072 118.412 201.263 153.067 194.702 156.125C179.959 162.995 157.959 161.322 157.959 161.322L162.876 78.3504L170.471 48.9991Z" fill="#3F3D58"/>
<path d="M151.638 53.2706L133.498 60.3116L129.214 112.594L117.216 154.712C137.538 162.123 135.64 158.669 135.64 158.669L139.007 85.994L151.638 53.2706Z" fill="#3F3D58"/>
<path d="M125.139 153.821L125.201 153.535L143.743 67.85C144.262 65.4559 143.599 63.0561 141.926 61.2655C140.253 59.4747 137.901 58.65 135.475 59.0025C132.482 59.4372 130.086 61.6153 129.371 64.5515L109.004 148.195L125.139 153.821Z" fill="#3F3D58"/>
<path d="M161.899 46.6226C151.928 46.6226 143.844 38.5464 143.844 28.584C143.844 18.6216 151.928 10.5454 161.899 10.5454C171.87 10.5454 179.954 18.6216 179.954 28.584C179.954 38.5464 171.87 46.6226 161.899 46.6226Z" fill="#FDADB0"/>
<path d="M153.309 5.21368C149.333 6.61015 147.057 7.40925 144.973 9.41558C141.452 12.8046 140.87 17.3336 140.331 21.5417C139.908 24.8337 139.362 29.0901 141.292 33.9531C141.95 35.6127 145.144 43.0066 151.258 43.9411C152.458 44.1245 155.277 44.1728 154.465 43.5735C146.945 38.0269 143.736 34.6785 143.999 26.1303C144.163 20.8189 152.286 15.0842 157.11 14.0533C159.141 13.6191 161.847 14.0158 163.786 15.6069C167.84 18.932 167.667 32.6821 171.942 35.5565C173.7 36.7385 172.529 28.4176 173.768 29.767C176.212 32.4295 174.644 36.5069 174.205 38.0597C172.121 45.4252 168.193 46.1461 166.159 52.4359C163.962 59.2266 166.727 65.6199 167.382 67.136C168.523 69.7734 170.481 74.2996 174.953 76.4711C180.63 79.2273 185.104 75.6381 187.743 78.7151C189.219 80.4353 188.421 82.257 191.085 87.6073C191.955 89.3538 192.39 90.2272 192.775 90.1962C194.597 90.0496 197.547 75.4775 192.776 61.9066C190.774 56.2114 188.812 50.6315 183.553 46.2683C180.773 43.9615 178.442 43.1314 177.778 40.4376C176.83 36.5891 180.767 34.9465 181.556 28.8742C182.096 24.7214 182.474 18.782 181.007 14.9752C179.621 11.3803 178.418 8.25959 175.269 5.43013C174.513 4.75052 168.408 0.130966 161.934 0.000656022C158.954 -0.0592481 156.765 4.0004 153.309 5.21368Z" fill="#2F2E43"/>
<path d="M115.159 162.789C90.7707 162.789 71 143.036 71 118.669C71 94.3028 90.7707 74.5498 115.159 74.5498C139.548 74.5498 159.318 94.3028 159.318 118.669C159.318 143.036 139.548 162.789 115.159 162.789Z" fill="#5415D9"/>
<path d="M126.333 147.454C123.652 137.793 120.972 128.131 118.291 118.47C117.72 116.413 117.279 114.129 115.972 112.383C114.962 111.034 113.374 110.151 111.693 110.706C107.685 112.029 107.749 117.808 107.821 121.179C107.928 126.268 109.078 131.346 111.195 135.978C111.485 136.613 111.376 137.371 110.73 137.749C110.173 138.074 109.25 137.923 108.958 137.284C106.839 132.646 105.579 127.681 105.286 122.586C105.033 118.191 105.014 112.394 108.827 109.398C110.691 107.933 113.07 107.498 115.255 108.51C117.415 109.51 118.733 111.581 119.563 113.725C120.485 116.11 121.034 118.666 121.717 121.126L123.916 129.054C125.554 134.958 127.193 140.862 128.831 146.766C129.277 148.373 126.778 149.059 126.333 147.454Z" fill="white"/>
<path d="M114.848 133.999C113.189 127.778 112.341 121.345 112.334 114.908C112.333 113.242 114.923 113.24 114.925 114.908C114.931 121.127 115.743 127.301 117.345 133.311C117.775 134.922 115.277 135.609 114.848 133.999Z" fill="white"/>
<path d="M141.476 133.924C139.74 125.561 137.861 117.172 135.452 108.974C133.498 102.327 130.129 94.7941 123.02 92.384C119.489 91.187 115.662 91.3798 112.048 92.0743C108.464 92.7631 104.834 93.7881 101.531 95.3559C98.4046 96.8401 95.5121 98.8857 93.4538 101.704C91.422 104.485 90.1567 107.714 89.4748 111.075C87.8922 118.877 89.7551 126.847 91.8421 134.366C92.1198 135.367 92.4038 136.366 92.688 137.364C93.1446 138.969 90.6461 139.654 90.1904 138.052C87.8838 129.946 85.488 121.477 86.5626 112.969C87.0274 109.29 88.0605 105.675 89.9014 102.437C91.7879 99.118 94.5099 96.4054 97.7731 94.4337C101.064 92.4453 104.769 91.1794 108.479 90.2294C112.419 89.2203 116.519 88.5991 120.578 89.1631C124.405 89.6948 127.853 91.5076 130.562 94.2446C133.339 97.0486 135.216 100.552 136.601 104.214C138.129 108.253 139.127 112.495 140.178 116.676C141.289 121.095 142.325 125.532 143.286 129.986C143.52 131.068 143.749 132.152 143.974 133.236C144.116 133.919 143.774 134.634 143.069 134.827C142.427 135.004 141.619 134.611 141.476 133.924Z" fill="white"/>
<path d="M128.126 107.172C126.107 101.049 119.602 97.2576 113.305 97.6777C106.324 98.1434 100.274 103.237 97.8232 109.646C96.367 113.455 95.9395 117.646 96.5517 121.676C96.6565 122.366 96.3776 123.067 95.6472 123.268C95.0348 123.436 94.1596 123.059 94.054 122.364C92.8304 114.309 95.0791 105.533 101.424 100.086C104.399 97.5318 108.043 95.764 111.944 95.2347C115.695 94.7257 119.477 95.4193 122.798 97.2438C126.441 99.2452 129.318 102.526 130.624 106.484C131.147 108.07 128.647 108.749 128.126 107.172Z" fill="white"/>
<path d="M133.637 119.041C134.194 125.679 135.868 132.244 138.578 138.332C138.862 138.97 138.763 139.723 138.113 140.103C137.561 140.425 136.627 140.28 136.341 139.638C133.433 133.103 131.645 126.169 131.047 119.041C130.989 118.344 131.684 117.747 132.342 117.747C133.092 117.747 133.579 118.342 133.637 119.041Z" fill="white"/>
<path d="M102.35 126.451C102.906 133.09 104.581 139.654 107.291 145.743C107.574 146.381 107.476 147.133 106.826 147.513C106.274 147.835 105.34 147.691 105.054 147.049C102.146 140.514 100.357 133.58 99.7599 126.451C99.7015 125.754 100.397 125.157 101.055 125.157C101.804 125.157 102.292 125.752 102.35 126.451Z" fill="white"/>
<path d="M127.12 121.301C125.455 114.702 122.695 108.449 118.951 102.764C118.032 101.369 120.274 100.071 121.188 101.458C125.044 107.314 127.903 113.817 129.618 120.613C130.026 122.228 127.528 122.917 127.12 121.301Z" fill="white"/>
<path d="M152.433 109.672C146.857 109.085 142.056 111.592 141.709 115.27C141.361 118.948 145.599 122.404 151.177 122.99C153.402 123.255 155.655 122.965 157.746 122.142L181.4 124.316L182.11 112.789L158.716 111.869C156.819 110.628 154.665 109.874 152.433 109.672Z" fill="#FDADB0"/>
<path d="M181.252 59.0311C186.977 58.2254 192.349 61.9867 193.539 67.6401C197.691 87.3636 205.142 129.377 193.44 130.079C178.139 130.996 163.45 127.327 163.45 127.327L167.122 106.231L179.057 105.008L172.037 72.2004C170.704 65.9712 174.938 59.9195 181.252 59.0311Z" fill="#3F3D58"/>
</svg>
