<svg width="250" height="277" viewBox="0 0 250 277" fill="none" xmlns="http://www.w3.org/2000/svg">
<path d="M144.737 0C203.571 6.22089 244.147 56.0544 250 118.714H212.363C206.908 78.0596 182.909 45.8807 144.737 40.0578V0Z" fill="#5415D9"/>
<path d="M105.263 0C46.4294 6.22089 5.85349 56.0544 0 118.714H37.6367C43.0916 78.0596 67.0909 45.8807 105.263 40.0578V0Z" fill="#5415D9"/>
<path d="M105.263 277C46.4294 270.779 5.85349 220.946 0 158.286H37.6367C43.0916 198.94 67.0909 231.119 105.263 236.942V277Z" fill="#5415D9"/>
<path d="M144.737 277C203.571 270.779 244.147 220.946 250 158.286H212.363C206.908 198.94 182.909 231.119 144.737 236.942V277Z" fill="#5415D9"/>
</svg>
