<svg width="250" height="250" viewBox="0 0 250 250" fill="none" xmlns="http://www.w3.org/2000/svg">
<path d="M144.737 0C203.571 5.61452 244.147 50.5906 250 107.143H212.363C206.908 70.4509 182.909 41.4086 144.737 36.1532V0Z" fill="white"/>
<path d="M105.263 0C46.4294 5.61452 5.85349 50.5906 0 107.143H37.6367C43.0916 70.4509 67.0909 41.4086 105.263 36.1532V0Z" fill="white"/>
<path d="M105.263 250C46.4294 244.385 5.85349 199.409 0 142.857H37.6367C43.0916 179.549 67.0909 208.591 105.263 213.847V250Z" fill="white"/>
<path d="M144.737 250C203.571 244.385 244.147 199.409 250 142.857H212.363C206.908 179.549 182.909 208.591 144.737 213.847V250Z" fill="white"/>
</svg>
