<svg width="452" height="327" viewBox="0 0 452 327" fill="none" xmlns="http://www.w3.org/2000/svg">
<ellipse cx="224" cy="163.5" rx="163.5" ry="224" transform="rotate(-90 224 163.5)" fill="url(#paint0_radial_15_238)"/>
<path d="M123.69 291C168.806 291 205.38 288.215 205.38 284.78C205.38 281.344 168.806 278.559 123.69 278.559C78.5738 278.559 42 281.344 42 284.78C42 288.215 78.5738 291 123.69 291Z" fill="#5415D9"/>
<path d="M104.442 68.4584C118.659 62.3959 136.365 66.237 153.658 68.9029C153.819 65.6745 155.77 61.7454 153.726 59.4931C151.244 56.7567 151.473 53.8816 152.966 50.9899C156.786 43.5953 151.313 35.7272 145.788 29.1849C144.542 27.7136 142.968 26.5576 141.194 25.8108C139.419 25.0639 137.493 24.7473 135.574 24.8867L125.338 25.6197C122.847 25.7981 120.47 26.7349 118.525 28.3047C116.58 29.8745 115.159 32.0026 114.453 34.404C112.009 37.7367 110.701 41.0602 111.525 44.3663C107.864 46.8746 107.249 49.9024 108.894 53.3156C110.289 55.4648 110.274 57.5567 108.83 59.5908C106.934 62.1841 105.482 65.0757 104.534 68.147L104.442 68.4584Z" fill="#2F2E41"/>
<path d="M442.284 252.242H152.535C149.958 252.242 147.487 251.216 145.665 249.389C143.843 247.563 142.82 245.085 142.82 242.502C247.854 230.263 350.914 230.263 452 242.502C452 245.085 450.976 247.563 449.154 249.389C447.332 251.216 444.861 252.242 442.284 252.242Z" fill="#2F2E41"/>
<path d="M452 243.075L142.82 242.502L178.653 182.052L178.824 181.765V48.541C178.824 46.924 179.141 45.3227 179.759 43.8287C180.376 42.3347 181.28 40.9772 182.421 39.8338C183.561 38.6904 184.915 37.7834 186.405 37.1646C187.895 36.5459 189.493 36.2275 191.105 36.2276H402C403.612 36.2275 405.21 36.5459 406.7 37.1646C408.19 37.7834 409.544 38.6904 410.684 39.8338C411.825 40.9772 412.729 42.3347 413.346 43.8287C413.964 45.3227 414.281 46.924 414.281 48.541V182.682L452 243.075Z" fill="#3F3D56"/>
<path d="M190.825 44.8224C189.765 44.8236 188.748 45.2465 187.998 45.9984C187.248 46.7504 186.826 47.7699 186.825 48.8332V170.306C186.826 171.369 187.248 172.389 187.998 173.141C188.748 173.892 189.765 174.315 190.825 174.317H403.994C405.055 174.315 406.071 173.892 406.821 173.14C407.571 172.389 407.993 171.369 407.995 170.306V48.8332C407.993 47.7699 407.571 46.7504 406.822 45.9985C406.072 45.2466 405.055 44.8236 403.994 44.8224H190.825Z" fill="white"/>
<path d="M191.719 190.36C191.391 190.361 191.07 190.455 190.794 190.632C190.518 190.81 190.299 191.062 190.161 191.361L179.12 215.426C179 215.688 178.947 215.976 178.967 216.263C178.987 216.551 179.079 216.829 179.234 217.072C179.389 217.314 179.602 217.514 179.855 217.653C180.107 217.791 180.39 217.863 180.677 217.863H412.869C413.161 217.863 413.448 217.788 413.703 217.646C413.959 217.503 414.173 217.297 414.327 217.048C414.481 216.799 414.568 216.514 414.581 216.222C414.594 215.929 414.532 215.638 414.402 215.376L402.4 191.31C402.259 191.024 402.04 190.784 401.769 190.616C401.498 190.448 401.186 190.359 400.867 190.36H191.719Z" fill="#2F2E41"/>
<path d="M296.553 42.8169C297.973 42.8169 299.124 41.6625 299.124 40.2385C299.124 38.8145 297.973 37.6601 296.553 37.6601C295.132 37.6601 293.981 38.8145 293.981 40.2385C293.981 41.6625 295.132 42.8169 296.553 42.8169Z" fill="white"/>
<path d="M273.73 222.447C273.353 222.448 272.987 222.573 272.688 222.802C272.389 223.032 272.173 223.354 272.075 223.719L269.305 234.033C269.237 234.288 269.228 234.555 269.279 234.814C269.33 235.072 269.44 235.316 269.6 235.525C269.76 235.735 269.966 235.905 270.202 236.021C270.438 236.138 270.697 236.199 270.96 236.199H323.632C323.905 236.199 324.174 236.133 324.417 236.008C324.66 235.882 324.87 235.7 325.028 235.477C325.187 235.254 325.29 234.996 325.329 234.724C325.367 234.453 325.341 234.177 325.251 233.918L321.691 223.604C321.574 223.266 321.355 222.973 321.065 222.766C320.775 222.559 320.427 222.447 320.071 222.447H273.73Z" fill="#2F2E41"/>
<path d="M414.281 179.76V182.052H178.653L178.83 181.766V179.76H414.281Z" fill="#2F2E41"/>
<path d="M407.709 85.2177C429.803 85.2177 447.714 67.2604 447.714 45.1088C447.714 22.9573 429.803 5 407.709 5C385.615 5 367.704 22.9573 367.704 45.1088C367.704 67.2604 385.615 85.2177 407.709 85.2177Z" fill="#5415D9"/>
<path d="M424.282 62.5849H391.136C390.53 62.5843 389.948 62.3426 389.52 61.9129C389.091 61.4832 388.85 60.9006 388.85 60.2929V40.2385C388.85 39.6308 389.091 39.0482 389.52 38.6186C389.948 38.1889 390.53 37.9472 391.136 37.9466H424.282C424.889 37.9472 425.47 38.1889 425.898 38.6186C426.327 39.0482 426.568 39.6308 426.568 40.2385V60.2929C426.568 60.9006 426.327 61.4832 425.898 61.9129C425.47 62.3426 424.889 62.5843 424.282 62.5849ZM391.136 40.2385V60.2929H424.284L424.282 40.2385L391.136 40.2385Z" fill="white"/>
<path d="M417.996 40.2385H397.422V31.0708C397.422 24.4305 401.748 19.6111 407.709 19.6111C413.669 19.6111 417.996 24.4305 417.996 31.0708L417.996 40.2385ZM399.708 37.9466H415.71V31.0708C415.71 25.673 412.42 21.903 407.709 21.903C402.998 21.903 399.708 25.673 399.708 31.0708L399.708 37.9466Z" fill="white"/>
<path d="M407.709 51.9847C408.971 51.9847 409.995 50.9585 409.995 49.6927C409.995 48.4269 408.971 47.4008 407.709 47.4008C406.446 47.4008 405.423 48.4269 405.423 49.6927C405.423 50.9585 406.446 51.9847 407.709 51.9847Z" fill="white"/>
<path d="M379.782 133.114H215.038C214.229 133.113 213.453 132.791 212.881 132.217C212.309 131.644 211.988 130.867 211.987 130.056V89.0833C211.988 88.2724 212.309 87.4949 212.881 86.9215C213.453 86.3481 214.229 86.0255 215.038 86.0246H379.782C380.591 86.0255 381.366 86.3481 381.938 86.9215C382.51 87.4949 382.832 88.2724 382.833 89.0833V130.056C382.832 130.867 382.51 131.644 381.938 132.217C381.366 132.791 380.591 133.113 379.782 133.114ZM215.038 87.2481C214.552 87.2486 214.087 87.4421 213.744 87.7862C213.401 88.1303 213.208 88.5968 213.207 89.0833V130.056C213.208 130.542 213.401 131.009 213.744 131.353C214.087 131.697 214.552 131.89 215.038 131.891H379.782C380.267 131.89 380.733 131.697 381.076 131.353C381.419 131.009 381.612 130.542 381.613 130.056V89.0833C381.612 88.5967 381.419 88.1302 381.076 87.7862C380.733 87.4421 380.267 87.2486 379.782 87.2481L215.038 87.2481Z" fill="#E6E6E6"/>
<path d="M242.737 121C247.914 120.439 251.485 115.941 252 110.286H248.688C248.208 113.955 246.096 116.859 242.737 117.385V121Z" fill="#5415D9"/>
<path d="M239.263 121C234.086 120.439 230.515 115.941 230 110.286H233.312C233.792 113.955 235.904 116.859 239.263 117.385V121Z" fill="#5415D9"/>
<path d="M239.263 96C234.086 96.5615 230.515 101.059 230 106.714H233.312C233.792 103.045 235.904 100.141 239.263 99.6153V96Z" fill="#5415D9"/>
<path d="M242.737 96C247.914 96.5615 251.485 101.059 252 106.714H248.688C248.208 103.045 246.096 100.141 242.737 99.6153V96Z" fill="#5415D9"/>
<path d="M269.337 99.6909C269.065 99.6905 268.795 99.7439 268.543 99.848C268.292 99.9522 268.063 100.105 267.87 100.298C267.678 100.491 267.525 100.72 267.42 100.972C267.316 101.224 267.262 101.495 267.262 101.768C267.262 102.041 267.316 102.311 267.42 102.563C267.525 102.815 267.678 103.044 267.87 103.237C268.063 103.43 268.292 103.583 268.543 103.687C268.795 103.791 269.065 103.845 269.337 103.844H366.981C367.53 103.844 368.057 103.625 368.446 103.236C368.834 102.846 369.052 102.318 369.052 101.768C369.052 101.217 368.834 100.689 368.446 100.299C368.057 99.9097 367.53 99.6909 366.981 99.6909H269.337Z" fill="#E6E6E6"/>
<path d="M269.337 112.151C268.788 112.151 268.261 112.369 267.873 112.759C267.484 113.148 267.266 113.677 267.266 114.227C267.266 114.778 267.484 115.306 267.873 115.696C268.261 116.085 268.788 116.304 269.337 116.304H311.354C311.903 116.304 312.43 116.085 312.818 115.696C313.207 115.306 313.425 114.778 313.425 114.227C313.425 113.677 313.207 113.148 312.818 112.759C312.43 112.369 311.903 112.151 311.354 112.151H269.337Z" fill="#E6E6E6"/>
<path d="M178.247 112.991L147.793 129.224L147.407 115.696C157.348 114.033 166.805 111.136 175.549 106.42L178.734 98.5306C179.081 97.6709 179.645 96.9165 180.371 96.3414C181.097 95.7663 181.959 95.3903 182.873 95.2503C183.788 95.1103 184.723 95.2111 185.587 95.5428C186.451 95.8745 187.214 96.4258 187.801 97.1425C188.66 98.191 189.089 99.5278 189.002 100.882C188.915 102.236 188.317 103.506 187.331 104.435L178.247 112.991Z" fill="#FFB8B8"/>
<path d="M103.835 206.714C103.613 205.897 103.566 205.042 103.697 204.206C103.828 203.369 104.134 202.57 104.595 201.861L111.285 191.567C112.867 189.132 115.295 187.374 118.097 186.632C120.9 185.891 123.877 186.22 126.452 187.555C123.64 192.353 124.032 196.563 127.423 200.221C122.159 202.797 117.294 206.122 112.979 210.093C112.191 210.631 111.286 210.973 110.34 211.09C109.394 211.207 108.433 211.096 107.539 210.765C106.644 210.435 105.841 209.894 105.197 209.19C104.553 208.485 104.086 207.636 103.835 206.714Z" fill="#2F2E41"/>
<path d="M179.634 193.255C178.622 194.947 177.193 196.349 175.484 197.327C173.776 198.306 171.845 198.828 169.878 198.842L125.434 199.18L123.507 187.972L143.167 182.174L126.591 169.42L144.709 148.162L177.617 178.914C179.541 180.711 180.791 183.116 181.158 185.727C181.525 188.337 180.987 190.994 179.634 193.255Z" fill="#2F2E41"/>
<path d="M118.495 269.909H108.087C98.7413 205.685 89.2287 141.281 117.339 117.242L150.491 122.653L146.251 150.868L127.747 172.125L118.495 269.909Z" fill="#2F2E41"/>
<path d="M127.645 284.458C126.83 284.681 125.977 284.728 125.143 284.597C124.308 284.466 123.511 284.159 122.804 283.697L111.502 282.174C109.074 280.588 107.32 278.153 106.58 275.344C105.841 272.534 106.168 269.549 107.5 266.968C112.286 269.786 116.484 269.393 120.133 265.994C122.711 271.212 126.958 270.894 131.014 275.29C131.551 276.08 131.892 276.987 132.009 277.936C132.126 278.885 132.015 279.848 131.685 280.745C131.355 281.642 130.817 282.447 130.114 283.093C129.411 283.739 128.564 284.207 127.645 284.458Z" fill="#2F2E41"/>
<path d="M143.167 74.3407L123.892 69.7027C127.093 63.133 127.357 55.8228 125.82 48.0587L138.926 47.6722C139.337 57.3271 140.58 66.3471 143.167 74.3407Z" fill="#FFB8B8"/>
<path d="M148.464 134.29C134.433 143.877 124.519 134.618 116.953 120.334C118.004 111.593 116.302 101.133 113.149 89.7679C111.747 84.7549 112.271 79.397 114.616 74.752C116.962 70.107 120.96 66.5125 125.819 64.6782L142.396 71.6352C156.471 83.138 159.242 95.5978 153.961 108.739L148.464 134.29Z" fill="#5415D9"/>
<path d="M108.087 84.0032L92.6668 92.1197L120.037 108.353L123.846 117.771C124.1 118.4 124.224 119.074 124.209 119.752C124.195 120.43 124.044 121.098 123.764 121.716C123.484 122.333 123.081 122.887 122.58 123.344C122.08 123.8 121.492 124.149 120.852 124.37C120.125 124.622 119.35 124.701 118.587 124.602C117.825 124.503 117.095 124.228 116.456 123.799C115.817 123.37 115.286 122.798 114.904 122.129C114.522 121.46 114.299 120.711 114.254 119.941L113.869 113.377L79.0818 101.868C77.9097 101.48 76.8411 100.83 75.9567 99.9664C75.0723 99.1032 74.3955 98.0495 73.9774 96.8852C73.368 95.1881 73.337 93.3363 73.8892 91.6196C74.4414 89.9029 75.5457 88.4182 77.0292 87.3978L105.003 68.1567L108.087 84.0032Z" fill="#FFB8B8"/>
<path d="M123.507 85.5492C117.075 82.7236 111.228 85.7931 103.846 88.2547L102.69 67.7702C110.019 63.8536 117.007 62.7976 123.507 65.8378L123.507 85.5492Z" fill="#5415D9"/>
<path d="M131.2 57.8189C137.996 57.8189 143.506 52.2949 143.506 45.4807C143.506 38.6664 137.996 33.1424 131.2 33.1424C124.403 33.1424 118.893 38.6664 118.893 45.4807C118.893 52.2949 124.403 57.8189 131.2 57.8189Z" fill="#FFB8B8"/>
<path d="M145.922 43.9239C133.738 45.1203 124.453 43.1225 118.52 37.4339V32.8527H144.888L145.922 43.9239Z" fill="#2F2E41"/>
<defs>
<radialGradient id="paint0_radial_15_238" cx="0" cy="0" r="1" gradientUnits="userSpaceOnUse" gradientTransform="translate(224.822 163.5) rotate(90) scale(224 163.5)">
<stop stop-color="#7950E2"/>
<stop offset="1" stop-color="#7950E2" stop-opacity="0"/>
</radialGradient>
</defs>
</svg>
