<svg width="410" height="286" viewBox="0 0 410 286" fill="none" xmlns="http://www.w3.org/2000/svg">
<path d="M81.6898 286C126.806 286 163.38 283.215 163.38 279.78C163.38 276.344 126.806 273.559 81.6898 273.559C36.5738 273.559 0 276.344 0 279.78C0 283.215 36.5738 286 81.6898 286Z" fill="#C9C9C9"/>
<path d="M62.4421 63.4584C76.6586 57.3959 94.3655 61.237 111.658 63.9029C111.819 60.6745 113.77 56.7454 111.726 54.4931C109.244 51.7567 109.473 48.8816 110.966 45.9899C114.786 38.5953 109.313 30.7272 103.788 24.1849C102.542 22.7136 100.968 21.5576 99.1936 20.8108C97.4189 20.0639 95.4935 19.7473 93.5738 19.8867L83.338 20.6197C80.8472 20.7981 78.4702 21.7349 76.525 23.3047C74.5798 24.8745 73.1591 27.0026 72.4531 29.404C70.009 32.7367 68.7009 36.0602 69.5245 39.3663C65.8636 41.8746 65.2486 44.9024 66.8936 48.3156C68.2886 50.4648 68.2737 52.5567 66.8302 54.5908C64.9344 57.1841 63.4823 60.0757 62.5336 63.147L62.4421 63.4584Z" fill="#2F2E41"/>
<path d="M400.284 247.242H110.535C107.958 247.242 105.487 246.216 103.665 244.389C101.843 242.563 100.82 240.085 100.82 237.502C205.854 225.263 308.914 225.263 410 237.502C410 240.085 408.976 242.563 407.154 244.389C405.332 246.216 402.861 247.242 400.284 247.242Z" fill="#2F2E41"/>
<path d="M410 238.075L100.82 237.502L136.653 177.052L136.824 176.765V43.541C136.824 41.924 137.141 40.3227 137.759 38.8287C138.376 37.3347 139.28 35.9772 140.421 34.8338C141.561 33.6904 142.915 32.7834 144.405 32.1646C145.895 31.5459 147.493 31.2275 149.105 31.2276H360C361.612 31.2275 363.209 31.5459 364.7 32.1646C366.19 32.7834 367.544 33.6904 368.684 34.8338C369.825 35.9772 370.729 37.3347 371.346 38.8287C371.964 40.3227 372.281 41.924 372.281 43.541V177.682L410 238.075Z" fill="#3F3D56"/>
<path d="M148.825 39.8224C147.765 39.8236 146.748 40.2465 145.998 40.9984C145.248 41.7504 144.826 42.7699 144.825 43.8332V165.306C144.826 166.369 145.248 167.389 145.998 168.141C146.748 168.892 147.765 169.315 148.825 169.317H361.994C363.055 169.315 364.071 168.892 364.821 168.14C365.571 167.389 365.993 166.369 365.995 165.306V43.8332C365.993 42.7699 365.571 41.7504 364.822 40.9985C364.072 40.2466 363.055 39.8236 361.994 39.8224H148.825Z" fill="white"/>
<path d="M149.719 185.36C149.391 185.361 149.07 185.455 148.794 185.632C148.518 185.81 148.299 186.062 148.161 186.361L137.12 210.426C137 210.688 136.947 210.976 136.967 211.263C136.987 211.551 137.079 211.829 137.234 212.072C137.389 212.314 137.602 212.514 137.855 212.653C138.107 212.791 138.39 212.863 138.677 212.863H370.869C371.161 212.863 371.448 212.788 371.703 212.646C371.959 212.503 372.173 212.297 372.327 212.048C372.481 211.799 372.568 211.514 372.581 211.222C372.594 210.929 372.532 210.638 372.402 210.376L360.4 186.31C360.259 186.024 360.04 185.784 359.769 185.616C359.498 185.448 359.186 185.359 358.867 185.36H149.719Z" fill="#2F2E41"/>
<path d="M254.553 37.8169C255.973 37.8169 257.124 36.6625 257.124 35.2385C257.124 33.8145 255.973 32.6601 254.553 32.6601C253.132 32.6601 251.981 33.8145 251.981 35.2385C251.981 36.6625 253.132 37.8169 254.553 37.8169Z" fill="white"/>
<path d="M231.73 217.447C231.353 217.448 230.987 217.573 230.688 217.802C230.389 218.032 230.173 218.354 230.075 218.719L227.305 229.033C227.237 229.288 227.228 229.555 227.279 229.814C227.33 230.072 227.44 230.316 227.6 230.525C227.76 230.735 227.966 230.905 228.202 231.021C228.438 231.138 228.697 231.199 228.96 231.199H281.632C281.905 231.199 282.174 231.133 282.417 231.008C282.66 230.882 282.87 230.7 283.028 230.477C283.187 230.254 283.29 229.996 283.329 229.724C283.367 229.453 283.341 229.177 283.251 228.918L279.691 218.604C279.574 218.266 279.355 217.973 279.065 217.766C278.775 217.559 278.427 217.447 278.071 217.447H231.73Z" fill="#2F2E41"/>
<path d="M372.281 174.76V177.052H136.653L136.83 176.766V174.76H372.281Z" fill="#2F2E41"/>
<path d="M365.709 80.2177C387.803 80.2177 405.714 62.2604 405.714 40.1088C405.714 17.9573 387.803 0 365.709 0C343.615 0 325.704 17.9573 325.704 40.1088C325.704 62.2604 343.615 80.2177 365.709 80.2177Z" fill="#5415D9"/>
<path d="M382.282 57.5849H349.136C348.53 57.5843 347.948 57.3426 347.52 56.9129C347.091 56.4832 346.85 55.9006 346.85 55.2929V35.2385C346.85 34.6308 347.091 34.0482 347.52 33.6186C347.948 33.1889 348.53 32.9472 349.136 32.9466H382.282C382.889 32.9472 383.47 33.1889 383.898 33.6186C384.327 34.0482 384.568 34.6308 384.568 35.2385V55.2929C384.568 55.9006 384.327 56.4832 383.898 56.9129C383.47 57.3426 382.889 57.5843 382.282 57.5849ZM349.136 35.2385V55.2929H382.284L382.282 35.2385L349.136 35.2385Z" fill="white"/>
<path d="M375.996 35.2385H355.422V26.0708C355.422 19.4305 359.748 14.6111 365.709 14.6111C371.669 14.6111 375.996 19.4305 375.996 26.0708L375.996 35.2385ZM357.708 32.9466H373.71V26.0708C373.71 20.673 370.42 16.903 365.709 16.903C360.998 16.903 357.708 20.673 357.708 26.0708L357.708 32.9466Z" fill="white"/>
<path d="M365.709 46.9847C366.971 46.9847 367.995 45.9585 367.995 44.6927C367.995 43.4269 366.971 42.4008 365.709 42.4008C364.446 42.4008 363.423 43.4269 363.423 44.6927C363.423 45.9585 364.446 46.9847 365.709 46.9847Z" fill="white"/>
<path d="M337.782 128.114H173.038C172.229 128.113 171.453 127.791 170.881 127.217C170.309 126.644 169.988 125.867 169.987 125.056V84.0833C169.988 83.2724 170.309 82.4949 170.881 81.9215C171.453 81.3481 172.229 81.0255 173.038 81.0246H337.782C338.591 81.0255 339.366 81.3481 339.938 81.9215C340.51 82.4949 340.832 83.2724 340.833 84.0833V125.056C340.832 125.867 340.51 126.644 339.938 127.217C339.366 127.791 338.591 128.113 337.782 128.114ZM173.038 82.2481C172.552 82.2486 172.087 82.4421 171.744 82.7862C171.401 83.1303 171.208 83.5968 171.207 84.0833V125.056C171.208 125.542 171.401 126.009 171.744 126.353C172.087 126.697 172.552 126.89 173.038 126.891H337.782C338.267 126.89 338.733 126.697 339.076 126.353C339.419 126.009 339.612 125.542 339.613 125.056V84.0833C339.612 83.5967 339.419 83.1302 339.076 82.7862C338.733 82.4421 338.267 82.2486 337.782 82.2481L173.038 82.2481Z" fill="#E6E6E6"/>
<path d="M200.737 116C205.914 115.439 209.485 110.941 210 105.286H206.688C206.208 108.955 204.096 111.859 200.737 112.385V116Z" fill="#5415D9"/>
<path d="M197.263 116C192.086 115.439 188.515 110.941 188 105.286H191.312C191.792 108.955 193.904 111.859 197.263 112.385V116Z" fill="#5415D9"/>
<path d="M197.263 91C192.086 91.5615 188.515 96.0591 188 101.714H191.312C191.792 98.0451 193.904 95.1409 197.263 94.6153V91Z" fill="#5415D9"/>
<path d="M200.737 91C205.914 91.5615 209.485 96.0591 210 101.714H206.688C206.208 98.0451 204.096 95.1409 200.737 94.6153V91Z" fill="#5415D9"/>
<path d="M227.337 94.6909C227.065 94.6905 226.795 94.7439 226.543 94.848C226.292 94.9522 226.063 95.1051 225.87 95.298C225.678 95.4909 225.525 95.7199 225.42 95.9721C225.316 96.2243 225.262 96.4946 225.262 96.7675C225.262 97.0405 225.316 97.3108 225.42 97.563C225.525 97.8151 225.678 98.0442 225.87 98.2371C226.063 98.43 226.292 98.5829 226.543 98.687C226.795 98.7912 227.065 98.8446 227.337 98.8442H324.981C325.53 98.8442 326.057 98.6254 326.446 98.2359C326.834 97.8465 327.052 97.3183 327.052 96.7675C327.052 96.2168 326.834 95.6886 326.446 95.2991C326.057 94.9097 325.53 94.6909 324.981 94.6909H227.337Z" fill="#E6E6E6"/>
<path d="M227.337 107.151C226.788 107.151 226.261 107.369 225.873 107.759C225.484 108.148 225.266 108.677 225.266 109.227C225.266 109.778 225.484 110.306 225.873 110.696C226.261 111.085 226.788 111.304 227.337 111.304H269.354C269.903 111.304 270.43 111.085 270.818 110.696C271.207 110.306 271.425 109.778 271.425 109.227C271.425 108.677 271.207 108.148 270.818 107.759C270.43 107.369 269.903 107.151 269.354 107.151H227.337Z" fill="#E6E6E6"/>
<path d="M136.247 107.991L105.793 124.224L105.407 110.696C115.348 109.033 124.805 106.136 133.549 101.42L136.734 93.5306C137.081 92.6709 137.645 91.9165 138.371 91.3414C139.097 90.7663 139.959 90.3903 140.873 90.2503C141.788 90.1103 142.723 90.2111 143.587 90.5428C144.451 90.8745 145.214 91.4258 145.801 92.1425C146.66 93.191 147.089 94.5278 147.002 95.8819C146.915 97.236 146.317 98.5063 145.331 99.4353L136.247 107.991Z" fill="#FFB8B8"/>
<path d="M61.835 201.714C61.6128 200.897 61.5657 200.042 61.6966 199.206C61.8275 198.369 62.1336 197.57 62.5947 196.861L69.2846 186.567C70.8669 184.132 73.2949 182.374 76.0974 181.632C78.8999 180.891 81.8772 181.22 84.4515 182.555C81.6399 187.353 82.0319 191.563 85.4225 195.221C80.1589 197.797 75.2942 201.122 70.9789 205.093C70.1911 205.631 69.2864 205.973 68.3401 206.09C67.3938 206.207 66.4334 206.096 65.5388 205.765C64.6442 205.435 63.8413 204.894 63.1971 204.19C62.5528 203.485 62.0858 202.636 61.835 201.714Z" fill="#2F2E41"/>
<path d="M137.634 188.255C136.622 189.947 135.193 191.349 133.484 192.327C131.776 193.306 129.845 193.828 127.878 193.842L83.4341 194.18L81.5066 182.972L101.167 177.174L84.5906 164.42L102.709 143.162L135.617 173.914C137.541 175.711 138.791 178.116 139.158 180.727C139.525 183.337 138.987 185.994 137.634 188.255Z" fill="#2F2E41"/>
<path d="M76.495 264.909H66.0866C56.7413 200.685 47.2287 136.281 75.3385 112.242L108.491 117.653L104.251 145.868L85.747 167.125L76.495 264.909Z" fill="#2F2E41"/>
<path d="M85.6447 279.458C84.8298 279.681 83.9772 279.728 83.1429 279.597C82.3085 279.466 81.5113 279.159 80.8037 278.697L69.5023 277.174C67.0738 275.588 65.3196 273.153 64.5801 270.344C63.8406 267.534 64.1684 264.549 65.5 261.968C70.286 264.786 74.4843 264.393 78.1327 260.994C80.7106 266.212 84.9579 265.894 89.0143 270.29C89.5514 271.08 89.8925 271.987 90.0091 272.936C90.1258 273.885 90.0147 274.848 89.685 275.745C89.3553 276.642 88.8167 277.447 88.1139 278.093C87.4111 278.739 86.5645 279.207 85.6447 279.458Z" fill="#2F2E41"/>
<path d="M101.167 69.3407L81.8921 64.7027C85.0933 58.133 85.357 50.8228 83.8196 43.0587L96.9265 42.6722C97.3372 52.3271 98.5796 61.3471 101.167 69.3407Z" fill="#FFB8B8"/>
<path d="M106.464 129.29C92.4329 138.877 82.5187 129.618 74.953 115.334C76.0043 106.593 74.3021 96.1335 71.1494 84.7679C69.7473 79.7549 70.2708 74.397 72.6165 69.752C74.9621 65.107 78.9595 61.5125 83.8194 59.6782L100.396 66.6352C114.471 78.138 117.242 90.5978 111.961 103.739L106.464 129.29Z" fill="#5415D9"/>
<path d="M66.0867 79.0032L50.6668 87.1197L78.0371 103.353L81.8455 112.771C82.0997 113.4 82.2235 114.074 82.2095 114.752C82.1954 115.43 82.0437 116.098 81.7636 116.716C81.4835 117.333 81.081 117.887 80.5805 118.344C80.0799 118.8 79.4919 119.149 78.8523 119.37C78.1253 119.622 77.35 119.701 76.5873 119.602C75.8246 119.503 75.0952 119.228 74.4561 118.799C73.8171 118.37 73.2857 117.798 72.9037 117.129C72.5217 116.46 72.2995 115.711 72.2543 114.941L71.8692 108.377L37.0818 96.8675C35.9097 96.4797 34.8411 95.8296 33.9567 94.9664C33.0723 94.1032 32.3955 93.0495 31.9774 91.8852C31.368 90.1881 31.337 88.3363 31.8892 86.6196C32.4414 84.9029 33.5457 83.4182 35.0292 82.3978L63.0027 63.1567L66.0867 79.0032Z" fill="#FFB8B8"/>
<path d="M81.5065 80.5492C75.0755 77.7236 69.2276 80.7931 61.8462 83.2547L60.6897 62.7702C68.0191 58.8536 75.0072 57.7976 81.5066 60.8378L81.5065 80.5492Z" fill="#5415D9"/>
<path d="M89.1996 52.8189C95.9961 52.8189 101.506 47.2949 101.506 40.4807C101.506 33.6664 95.9961 28.1424 89.1996 28.1424C82.403 28.1424 76.8933 33.6664 76.8933 40.4807C76.8933 47.2949 82.403 52.8189 89.1996 52.8189Z" fill="#FFB8B8"/>
<path d="M103.922 38.9239C91.7375 40.1203 82.4532 38.1225 76.5195 32.4339V27.8527H102.888L103.922 38.9239Z" fill="#2F2E41"/>
</svg>
