<svg width="22" height="18" viewBox="0 0 22 18" fill="none" xmlns="http://www.w3.org/2000/svg">
<path d="M11 0C16.4825 0 21.0437 3.87976 22 9C21.0437 14.1202 16.4825 18 11 18C5.51745 18 0.956277 14.1202 0 9C0.956277 3.87976 5.51745 0 11 0ZM11 16C15.3066 16 18.9918 13.052 19.9246 9C18.9918 4.94803 15.3066 2 11 2C6.69332 2 3.00818 4.94803 2.07536 9C3.00818 13.052 6.69332 16 11 16ZM11 13.5C8.47305 13.5 6.42455 11.4853 6.42455 9C6.42455 6.51472 8.47305 4.5 11 4.5C13.5269 4.5 15.5755 6.51472 15.5755 9C15.5755 11.4853 13.5269 13.5 11 13.5ZM11 11.5C12.4039 11.5 13.5419 10.3807 13.5419 9C13.5419 7.6193 12.4039 6.5 11 6.5C9.59618 6.5 8.45808 7.6193 8.45808 9C8.45808 10.3807 9.59618 11.5 11 11.5Z" fill="#C8C1D7"/>
</svg>
